<svg version="1.1" id="adrenalins" xmlns="http://www.w3.org/2000/svg" xmlns:xlink="http://www.w3.org/1999/xlink" x="0px" y="0px"
	 width="153px" height="77px" viewBox="0 0 153 77" enable-background="new 0 0 153 77" xml:space="preserve">
<path fill-rule="evenodd" clip-rule="evenodd" fill="#FFFFFF" d="M152.989,49.646c-0.076,0.552-0.153,1.104-0.229,1.656
	c-0.041,0.071-0.082,0.142-0.12,0.176c-0.354,0.008-0.704-0.021-1.021-0.047c-0.416,0.375-14.619-0.094-16.202-0.188
	c-0.019,0.258-4.705,0.094-5.375,0.075c-0.041,0.071-0.079,0.105-0.117,0.14c-2.001-0.166-4.146,0.178-5.902,0.032
	c0.009-0.111-0.994,0.066-1.069,0.134c-2.291-0.078-13.172,1.329-14.271-0.028c0.093-0.774,0.186-1.548,0.282-2.359
	c-0.035-0.003-0.067-0.043-0.101-0.083c-1.806,2.419-3.721,4.42-4.913,6.667c-0.562-0.047-0.516-0.191-0.929-0.337
	c0.843-3.728,2.479-7.65,3.732-11.679c-0.069-0.006-0.14-0.012-0.176-0.014c-2.571,3.695-8.816,18.256-10.64,18.552
	c-0.572-0.382,4.117-13.993,4.351-14.755c-0.035-0.002-0.067-0.043-0.1-0.083c-2.503,4.186-2.827,5.685-7.614,4.991
	c-0.025,0.333-6.03-0.165-6.451-0.2c-0.032-0.04-0.064-0.08-0.094-0.157c-0.457-0.038-0.878-0.072-1.3-0.108
	c-0.019,0.259-0.608,0.099-0.891,0.113c-0.042,0.071-0.08,0.105-0.118,0.139c-0.528-0.006-1.056-0.05-1.582-0.094
	c-1.403,0.814-9.32,0.382-9.567,0.845c-1.966-0.163-5.449,0.591-6.652-0.328c-0.386-0.032-2.182,2.724-2.345,3.008
	c-0.913-0.076-0.786,0.121-0.907-0.633c-0.135-0.086-0.27-0.171-0.405-0.257c0.188-1.102,0.376-2.203,0.603-3.338
	c-0.068-0.043-0.135-0.086-0.167-0.126c-1.486,0.51-2.74,4.054-3.171,5.099c-0.808-0.067-5.238,14.792-7.071,14.269
	c0.056-0.74,0.387-1.867,0.599-2.817c3.924-11.403,6.262-23.792,9.896-35.554c0.158-0.694,0.318-1.426,0.479-2.157
	c-1.931-0.16-9.53,23.075-11.325,25.83c-0.407,1.195-1.136,2.437-1.316,3.428c-2.349,5.911-4.177,12.423-7.105,17.579
	c-0.144,0.025-0.287,0.051-0.427,0.039c0.116-1.554,1.405-3.682,1.735-5.739c2.001-5.046,2.812-11.159,4.897-16.385
	c1.202-5.225,3.342-10.706,4.92-16.234c-0.035-0.003-0.067-0.042-0.1-0.083c-1.358,3.052-5.595,13.423-6.862,13.839
	c-1.991,0.17-3.979,0.303-5.968,0.436c-0.032-0.04-0.065-0.08-0.097-0.12c-2.254,0.372-10.14,0.947-11.084,0.347
	c0.039-0.518,0.321-0.979,0.311-1.799c-0.035-0.002-0.07-0.005-0.103-0.045c-0.39,0.489-0.744,0.98-1.096,1.436
	c-0.175-0.015-5.01,6.063-4.167,2.819c0.141,0.012,2.603-6.002,2.581-7.121c-0.208,0.43-0.415,0.822-0.621,1.214
	c-1.159-0.096-5.657,12.375-7.443,10.738c1.459-3.453,2.444-6.722,3.483-10.694c-0.068-0.043-0.135-0.086-0.165-0.163
	c-0.043,0.108-0.086,0.216-0.127,0.287c-0.457-0.038-0.839,2.239-0.955,2.378c-1.53-1.281-6.079,0.502-7.566,0.081
	c-0.53,0.477-9.267,0.61-9.653,0.578c-0.02,0.259-0.819,0.081-1.064,0.061c-0.041,0.071-0.079,0.105-0.081,0.142
	c-0.913-0.076-4.64-0.794-3.945-2.523c0.067,0.042,0.135,0.085,0.202,0.128c0.579-0.66,19.92-0.397,21.406-0.423
	c0.041-0.071,0.841-1.792,1.489-1.961c0.122-1.628,5.375-7.634,3.639-3.31c-1.625,2.844-2.934,6.645-3.392,9.473
	c1.334,0.111,7.723-14.959,9.583-14.805c0.744,0.917-1.676,4.477-1.948,5.274c-0.597-0.05-2.951,7.35-3.241,8.406
	c0.07,0.006,0.175,0.015,0.281,0.023c0.877-1.342,4.035-6.255,5.641-6.941c0.032,0.04,0.064,0.08,0.132,0.123
	c-0.014,0.185,0.008,0.373,0.031,0.524c-0.744,0.98-1.456,3.416-1.363,4.057c4.623-0.399,10.159-0.722,14.969-0.323
	c0.909-0.818,3.431-6.678,4.239-8.51c1.734-1.941,6.319-17.458,8.602-17.269c0.292,0.359-5.044,15.517-5.563,17.261
	c-0.894,1.564-3.762,11.118-3.71,12.797c1.389-1.56,6.651-15.271,8.158-19.837c5.076-9.781,8.926-20.668,14.113-30.998
	c0.216-0.056,0.479-0.258,0.986,0.045c-0.264,1.169-5.285,13.523-5.357,13.555c-4.594,12.314-6.916,24.966-10.749,37.046
	c-0.387-0.032-0.66,2.216-0.666,2.29c1.219-2.133,9.138-21.618,11.094-21.791c-0.063,0.851-0.365,1.57-0.7,1.804
	c-1.033,3.898-4.398,12.07-4.11,15.779c0.352-0.455,1.996-3.073,2.606-3.209c0.043-0.108,0.087-0.216,0.133-0.361
	c0.211,0.018,0.459,0.001,0.708-0.016c0.28,0.507,0.098,1.051,0.033,1.455c0.259,0.319,25.238-0.18,29.602-0.414
	c0.357-0.529,5.661-9.583,6.928-9.031c0.232,0.652-2.063,5.376-2.198,5.774c-0.34,1.238-2.583,7.157-2.572,8.424
	c0.632,0.052,9.023-18.649,11.167-18.025c0.389,0.479-2.596,6.859-2.609,7.044c-0.937,2.603-1.734,4.771-2.229,7.149
	c1.229,0.102,3.598-6.068,5.458-5.914c1.715,2.115-4.144,4.385,1.919,4.589c8.086-0.41,16.174-0.856,24.298-1.3
	c0.003-0.037,13.655-1.661,15.905,0.387C152.995,49.573,152.992,49.609,152.989,49.646L152.989,49.646L152.989,49.646
	L152.989,49.646z"/>
<path fill-rule="evenodd" clip-rule="evenodd" fill="#FFFFFF" d="M12.74,19.352h6.85l4.277,27.238h-5.168l-0.688-5.705h-4.48
	l-0.897,5.705H7.918L12.74,19.352L12.74,19.352z M15.964,24.042l-1.753,12.632h3.296l-1.406-12.632H15.964L15.964,24.042z
	 M23.842,19.352h5.139c1.657,0,2.925,0.107,3.798,0.315c1.37,0.321,2.464,0.946,3.278,1.884c1.214,1.425,1.824,4.098,1.824,8.013
	v6.814c0,3.927-0.61,6.612-1.824,8.05c-0.784,0.926-1.873,1.544-3.278,1.866c-0.885,0.195-2.153,0.296-3.798,0.296h-5.139V19.352
	L23.842,19.352z M29.238,23.563v18.835h0.491c1.053,0,1.789-0.208,2.208-0.63c0.425-0.416,0.634-1.166,0.634-2.25V26.424
	c0-1.084-0.209-1.828-0.634-2.244c-0.419-0.41-1.155-0.618-2.208-0.618H29.238L29.238,23.563z M89.979,19.352h6.85l4.276,27.238
	h-5.168l-0.688-5.705h-4.48l-0.897,5.705h-4.714L89.979,19.352L89.979,19.352z M93.204,24.042l-1.753,12.632h3.296l-1.405-12.632
	H93.204L93.204,24.042z M100.722,19.352h5.33v23.046h6.132v4.192h-11.462V19.352L100.722,19.352z M112.908,19.352h5.348v27.238
	h-5.348V19.352L112.908,19.352z M112.167,12.903h6.837v2.976h-6.837V12.903L112.167,12.903z M119.494,19.352h6.951l3.828,23.046
	h0.383l-0.383-23.046h4.35v27.2h-7.047l-3.769-23.027h-0.354l0.354,23.027h-4.313V19.352L119.494,19.352z M148.147,25.409v2.049
	h-5.204v-2.42c0-1.317-0.442-1.979-1.334-1.979c-0.855,0-1.28,0.656-1.28,1.973v1.778c0,1.229,0.778,2.465,2.333,3.713l2.19,1.733
	l1.417,1.128c0.539,0.479,0.957,0.983,1.263,1.513c0.55,0.958,0.825,2.27,0.825,3.933v1.665c0,2.093-0.616,3.707-1.843,4.848
	c-1.227,1.141-2.991,1.708-5.288,1.708c-2.387,0-4.086-0.549-5.103-1.646c-0.98-1.059-1.471-2.793-1.471-5.207v-2.011H140v2.307
	c0,1.538,0.515,2.307,1.537,2.307c0.634,0,1.059-0.221,1.279-0.662c0.15-0.322,0.228-0.87,0.228-1.645v-1.053
	c0-0.939-0.251-1.739-0.754-2.401c-0.316-0.403-0.969-1.002-1.962-1.79l-2.189-1.759c-1.962-1.55-2.943-3.562-2.943-6.033v-2.383
	c0-1.809,0.611-3.278,1.825-4.399c1.262-1.154,2.961-1.734,5.097-1.734C146.137,18.942,148.147,21.098,148.147,25.409
	L148.147,25.409z"/>
<polygon fill-rule="evenodd" clip-rule="evenodd" fill="#FFFFFF" points="62.211,0 71.977,4.343 70.423,8.223 65.568,6.064 
	63.103,12.22 67.622,14.229 66.068,18.109 61.549,16.099 58.618,23.417 63.898,25.765 62.351,29.626 52.161,25.095 62.211,0 "/>
<polygon fill-rule="evenodd" clip-rule="evenodd" fill="#FFFFFF" points="73.668,11.8 80.537,12.927 80.953,36.32 81.331,36.382 
	84.319,13.549 88.617,14.254 84.643,41.13 77.68,39.987 77.32,16.623 76.971,16.566 73.956,39.375 69.695,38.676 73.668,11.8 "/>
<path fill-rule="evenodd" clip-rule="evenodd" fill="#FFFFFF" d="M37.321,18.951l6.395-1.014c2.485-0.394,4.352-0.199,5.589,0.586
	c1.244,0.791,2.023,2.306,2.342,4.543l0.162,1.135c0.273,1.907,0.093,3.402-0.547,4.472c-0.639,1.07-1.858,1.895-3.658,2.467
	c1.955-0.125,3.378,0.273,4.266,1.191c0.857,0.872,1.455,2.479,1.789,4.816l0.944,6.607l-5.271,0.836l-1.182-8.271
	c-0.179-1.253-0.425-2.042-0.744-2.368c-0.401-0.396-1.185-0.5-2.35-0.316l-0.574,0.091l1.625,11.376l-4.939,0.783L37.321,18.951
	L37.321,18.951z M42.835,22.188l1.082,7.573l0.473-0.075c1.041-0.165,1.726-0.497,2.06-0.996c0.333-0.505,0.42-1.335,0.253-2.507
	l-0.206-1.44c-0.167-1.172-0.482-1.938-0.942-2.317c-0.458-0.374-1.206-0.479-2.247-0.313L42.835,22.188L42.835,22.188z"/>
</svg>
