<svg xmlns="http://www.w3.org/2000/svg" width="24" height="24" viewBox="0 0 24 24"><path d="M12.001 1c-6.075 0-11.001 4.925-11.001 11s4.926 11 11.001 11 10.999-4.925 10.999-11-4.924-11-10.999-11zm5.985 15.861c.311.311.311.815 0 1.126-.156.155-.359.232-.563.232s-.407-.077-.563-.232l-4.859-4.862-4.862 4.862c-.156.155-.358.232-.563.232-.203 0-.407-.077-.563-.232-.311-.311-.311-.815 0-1.126l4.862-4.861-4.861-4.86c-.311-.311-.311-.815 0-1.125.312-.311.814-.311 1.125 0l4.862 4.861 4.859-4.861c.312-.311.815-.311 1.126 0s.311.814 0 1.126l-4.861 4.859 4.861 4.861z"/></svg>