<!DOCTYPE svg PUBLIC "-//W3C//DTD SVG 1.1//EN" "http://www.w3.org/Graphics/SVG/1.1/DTD/svg11.dtd"><svg version="1.1" id="Layer_1" xmlns="http://www.w3.org/2000/svg" xmlns:xlink="http://www.w3.org/1999/xlink" x="0px" y="0px" width="16px" height="16px" viewBox="0 0 16 16" enable-background="new 0 0 16 16" xml:space="preserve"><g><path fill="#FFFFFF" d="M15.64,13.536l-3.826-3.827c0.575-0.948,0.909-2.061,0.909-3.251C12.723,2.998,9.724,0,6.264,0
		S0,2.805,0,6.264s2.998,6.458,6.457,6.458c1.15,0,2.228-0.313,3.155-0.854l3.846,3.849c0.378,0.376,0.987,0.376,1.365,0
		l0.955-0.954C16.152,14.386,16.018,13.912,15.64,13.536z M1.928,6.264c0-2.396,1.941-4.336,4.336-4.336
		c2.396,0,4.53,2.134,4.53,4.53c0,2.395-1.941,4.336-4.337,4.336C4.062,10.794,1.928,8.66,1.928,6.264z"></path></g></svg>